<svg version="1.1" xmlns="http://www.w3.org/2000/svg" style="display: block;" viewBox="0 0 1044 1336" width="261" height="334" preserveAspectRatio="none">
<path transform="translate(0,0)" fill="rgb(0,0,0)" d="M 0 0 L 1044 0 L 1044 744.067 L 1044 891.928 L 1044 1336 L 0 1336 L 0 0 z"/>
<path transform="translate(0,0)" fill="rgb(254,254,254)" d="M 900.077 744.056 L 1044 744.067 L 1044 891.928 L 899.831 891.948 C 900.469 842.967 899.978 793.123 900.077 744.056 z"/>
<path transform="translate(0,0)" fill="rgb(254,254,254)" d="M 598.074 448.01 L 743.044 447.994 C 740.002 466.32 740.859 496.264 740.76 515.71 L 739.99 617.967 L 737.795 1033.2 L 737.276 1035.26 C 731.964 1037.11 614.437 1035.95 597.971 1035.93 L 598.074 448.01 z"/>
<path transform="translate(0,0)" fill="rgb(254,254,254)" d="M 307.203 1036.74 C 312.077 1035.41 341.954 1035.93 349.044 1035.94 L 440.835 1036.11 C 440.197 1083.44 439.66 1136.69 440.975 1183.86 C 398.098 1183.99 349.296 1182.79 306.98 1184.07 C 303.971 1184.26 299.815 1184.01 296.714 1183.91 C 295.621 1188.4 295.952 1221.78 295.957 1228.88 L 295.924 1332.01 L 151.89 1332 C 153.142 1234.12 152.001 1134.17 152.095 1036.07 L 252.231 1035.96 C 260.223 1035.95 291.186 1035.43 296.986 1036.72 C 301.212 1037.84 302.836 1037.88 307.203 1036.74 z"/>
<path transform="translate(0,0)" fill="rgb(254,254,254)" d="M 307.203 1036.74 C 312.077 1035.41 341.954 1035.93 349.044 1035.94 L 440.835 1036.11 C 440.197 1083.44 439.66 1136.69 440.975 1183.86 C 398.098 1183.99 349.296 1182.79 306.98 1184.07 C 303.971 1184.26 299.815 1184.01 296.714 1183.91 C 297.757 1173.34 297.011 1146.41 297.003 1134.91 L 296.986 1036.72 C 301.212 1037.84 302.836 1037.88 307.203 1036.74 z"/>
<path transform="translate(0,0)" fill="rgb(34,32,33)" d="M 296.986 1036.72 C 301.212 1037.84 302.836 1037.88 307.203 1036.74 L 306.98 1184.07 C 303.971 1184.26 299.815 1184.01 296.714 1183.91 C 297.757 1173.34 297.011 1146.41 297.003 1134.91 L 296.986 1036.72 z"/>
<path transform="translate(0,0)" fill="rgb(254,254,254)" d="M 152.047 448.09 L 295.715 448.088 C 294.693 461.093 295.418 483.567 295.427 497.623 L 295.449 591.661 L 295.43 887.908 C 248.879 888.131 198.192 888.724 151.922 887.661 L 152.047 448.09 z"/>
<path transform="translate(0,0)" fill="rgb(254,254,254)" d="M 447.366 152.079 L 545.285 151.982 C 552.428 151.981 586.318 151.522 591.679 152.93 C 589.208 169.833 590.046 191.549 590.032 209.176 L 589.993 295.962 L 589.417 591.803 L 588.972 593.358 C 583.247 595.383 462.158 593.938 447.353 593.872 C 445.72 447.727 447.463 298.477 447.366 152.079 z"/>
<path transform="translate(0,0)" fill="rgb(254,254,254)" d="M 3.95505 888.079 C 50.6386 887.839 97.3233 887.883 144.006 888.211 L 143.737 1164.38 L 143.721 1269.49 C 143.72 1289.41 143.24 1312.15 144.161 1331.88 C 97.7618 1332.43 50.4495 1332.05 3.99761 1332.01 C 3.3605 1275.45 3.84261 1218.03 3.84135 1161.41 L 3.95505 888.079 z"/>
<path transform="translate(0,0)" fill="rgb(254,254,254)" d="M 306.083 4.00573 C 351.033 3.77499 395.983 3.79508 440.932 4.06601 C 439.341 92.1531 440.41 185.011 440.379 273.456 L 440.358 380.763 C 440.358 401.509 439.825 425.417 440.904 445.867 C 397.975 446.808 350.03 446.246 306.935 445.793 C 306.039 403.066 306.78 359.539 306.581 316.742 C 306.095 212.596 307.418 108.123 306.083 4.00573 z"/>
<path transform="translate(0,0)" fill="rgb(254,254,254)" d="M 747.238 596.063 L 891.148 596.089 C 889.87 633.24 891.498 677.081 891.804 714.834 L 892.572 891.882 L 746.947 891.956 C 748.217 794.463 747.078 693.821 747.238 596.063 z"/>
<path transform="translate(0,0)" fill="rgb(254,254,254)" d="M 447.197 888.087 C 494.023 887.588 542.144 887.84 588.996 888.167 C 587.685 986.184 588.444 1085.6 588.234 1183.73 C 545.23 1185.45 490.735 1183.99 447.068 1183.94 C 449.019 1087.18 447.276 985.35 447.197 888.087 z"/>
</svg>